<svg xmlns="http://www.w3.org/2000/svg" version="1.1" xmlns:xlink="http://www.w3.org/1999/xlink" xmlns:svgjs="http://svgjs.dev/svgjs" width="1440" height="560" preserveAspectRatio="none" viewBox="0 0 1440 560"><g mask="url(&quot;#SvgjsMask1011&quot;)" fill="none"><rect width="1440" height="560" x="0" y="0" fill="#0e2a47"></rect><path d="M1172.81 287.31 a30.27 30.27 0 1 0 60.54 0 a30.27 30.27 0 1 0 -60.54 0z" stroke="#037b0b"></path><path d="M1274.47 209.46L1295.75 209.46L1295.75 230.74L1274.47 230.74z" stroke="#d3b714"></path><path d="M916.4 11.41 a3.27 3.27 0 1 0 6.54 0 a3.27 3.27 0 1 0 -6.54 0z" stroke="#d3b714"></path><path d="M273.83 346.89L303.18 346.89L303.18 396.79L273.83 396.79z" fill="#d3b714"></path><path d="M272.42 346.84L311.38 346.84L311.38 361.83L272.42 361.83z" stroke="#037b0b"></path><path d="M1047.41 393.69 a22.84 22.84 0 1 0 45.68 0 a22.84 22.84 0 1 0 -45.68 0z" fill="#d3b714"></path><path d="M291.09 87.16L305.39 87.16L305.39 101.46L291.09 101.46z" stroke="#037b0b"></path><path d="M759.31 47.3a54.68 54.68 0 1 0-65.62-87.49z" stroke="#e73635"></path><path d="M888.44 407.17L932.75 407.17L932.75 459.97L888.44 459.97z" fill="#e73635"></path><path d="M1131.47 497.92 a29.96 29.96 0 1 0 59.92 0 a29.96 29.96 0 1 0 -59.92 0z" stroke="#d3b714"></path><path d="M1195.08 2.93L1233.84 2.93L1233.84 48.49L1195.08 48.49z" fill="#037b0b"></path><path d="M1223.92 198.71 a31.15 31.15 0 1 0 62.3 0 a31.15 31.15 0 1 0 -62.3 0z" stroke="#e73635"></path><path d="M1247.89 533.38 a4.96 4.96 0 1 0 9.92 0 a4.96 4.96 0 1 0 -9.92 0z" fill="#d3b714"></path><path d="M1275.93 79.49L1275.99 79.49L1275.99 79.55L1275.93 79.55z" fill="#037b0b"></path><path d="M1186.81 529.15a20.55 20.55 0 1 0 3.32-40.96z" stroke="#e73635"></path><path d="M1289.84 217.05L1342.62 217.05L1342.62 269.83L1289.84 269.83z" stroke="#037b0b"></path><path d="M-42.65 137.13 a55.15 55.15 0 1 0 110.3 0 a55.15 55.15 0 1 0 -110.3 0z" fill="#d3b714"></path><path d="M845.9 498.12 a4.45 4.45 0 1 0 8.9 0 a4.45 4.45 0 1 0 -8.9 0z" stroke="#e73635"></path><path d="M1343.64 451.71L1352.41 451.71L1352.41 482.33L1343.64 482.33z" stroke="#d3b714"></path><path d="M498.09 397.15L507.56 397.15L507.56 406.62L498.09 406.62z" fill="#e73635"></path><path d="M688.69 420.07 a7.2 7.2 0 1 0 14.4 0 a7.2 7.2 0 1 0 -14.4 0z" stroke="#d3b714"></path><path d="M639.97 90.21a6.45 6.45 0 1 0-2.89-12.57z" fill="#e73635"></path><path d="M1307.2 185.33L1338.89 185.33L1338.89 217.02L1307.2 217.02z" stroke="#e73635"></path><path d="M749.74 529.54L800.95 529.54L800.95 580.75L749.74 580.75z" fill="#e73635"></path><path d="M1390.71 243.61L1438.13 243.61L1438.13 267.3L1390.71 267.3z" fill="#037b0b"></path><path d="M1325.09 516.93a33.43 33.43 0 1 0 31.95 58.73z" fill="#037b0b"></path><path d="M106.13 128.13L133.44 128.13L133.44 159.64L106.13 159.64z" stroke="#037b0b"></path><path d="M1157.73 432.32L1170.7 432.32L1170.7 467.23L1157.73 467.23z" stroke="#e73635"></path><path d="M147.94 38.2L188.24 38.2L188.24 78.5L147.94 78.5z" stroke="#e73635"></path><path d="M915.69 118.15L936.26 118.15L936.26 155.77L915.69 155.77z" stroke="#d3b714"></path><path d="M749.75 92.16a35.78 35.78 0 1 0 23.88-67.46z" fill="#037b0b"></path><path d="M513.57 481.46 a39.68 39.68 0 1 0 79.36 0 a39.68 39.68 0 1 0 -79.36 0z" stroke="#d3b714"></path><path d="M402.91 451.32L442.29 451.32L442.29 472.56L402.91 472.56z" stroke="#037b0b"></path></g><defs><mask id="SvgjsMask1011"><rect width="1440" height="560" fill="#ffffff"></rect></mask></defs></svg>